<?xml version="1.0" encoding="utf-8"?>
<!-- Generator: Adobe Illustrator 24.1.0, SVG Export Plug-In . SVG Version: 6.00 Build 0)  -->
<svg version="1.1" id="Layer_1" xmlns="http://www.w3.org/2000/svg" xmlns:xlink="http://www.w3.org/1999/xlink" x="0px" y="0px"
     viewBox="0 0 952 526" style="enable-background:new 0 0 952 526;" xml:space="preserve">
<style type="text/css">
    .st0{fill:#FFFFFF;}
    .st1{fill:#286EAB;}
    .st2{fill:#C1D9EA;}
</style>
<g id="Layer_2_1_">
    <image class="icon animated infinite" style="overflow:visible;enable-background:new;" width="893" height="500" id="u2qFp9_3_" xlink:href="images/map.png" transform="matrix(0.9999 0 0 0.9999 29.5557 13.0312)"></image>
    <image class="icon animated infinite" style="overflow:visible;enable-background:new;" width="45" height="45" xlink:href="images/icon-map-1.png" transform="matrix(1 0 0 1 140.5039 52.2578)"></image>
    <image class="icon animated infinite" style="overflow:visible;enable-background:new;" width="45" height="45" xlink:href="images/icon-map-2.png" transform="matrix(1 0 0 1 91.2998 123.7793)"></image>
    <image class="icon animated infinite" style="overflow:visible;enable-background:new;" width="45" height="45" xlink:href="images/icon-map-6.png" transform="matrix(1 0 0 1 484.3965 54.2578)"></image>
    <image class="icon animated infinite" style="overflow:visible;enable-background:new;" width="45" height="45" xlink:href="images/icon-map-8.png" transform="matrix(1 0 0 1 699.3965 54.2578)"></image>
    <image class="icon animated infinite" style="overflow:visible;enable-background:new;" width="45" height="45" xlink:href="images/icon-map-3.png" transform="matrix(1 0 0 1 581.1855 113.7363)"></image>
    <image class="icon animated infinite" style="overflow:visible;enable-background:new;" width="45" height="45" xlink:href="images/icon-map-7.png" transform="matrix(1 0 0 1 807.0664 378.7363)"></image>
    <image class="icon animated infinite" style="overflow:visible;enable-background:new;" width="45" height="45" xlink:href="images/icon-map-9.png" transform="matrix(1 0 0 1 473.4995 358.2363)"></image>
    <image class="icon animated infinite" style="overflow:visible;enable-background:new;" width="45" height="45" xlink:href="images/icon-map-4.png" transform="matrix(1 0 0 1 257.4995 338.7363)"></image>
    <image class="icon animated infinite" style="overflow:visible;enable-background:new;" width="45" height="45" xlink:href="images/icon-map-5.png" transform="matrix(1 0 0 1 217.5 397.7363)"></image>
</g>
<g id="Layer_1_1_">
    <g id="Aeon" class="interact">
        <g id="circle-1">
            <g>
                <path class="st0 interact" d="M254.9,277c-25.5,37.4-76.5,47.1-113.9,21.7c-37.4-25.5-47.1-76.4-21.7-113.9
                    c25.5-37.4,76.5-47.1,113.9-21.7C270.7,188.6,280.4,239.6,254.9,277z"/>
                <path class="st1" d="M273.4,231c0,17.3-5.2,34.1-14.9,48.4c-13,19-32.6,31.9-55.2,36.2c-22.6,4.3-45.6-0.5-64.6-13.4
                    c-23.6-16.1-37.7-42.7-37.7-71.4c0-17.3,5.2-34.1,14.9-48.4c13-19,32.6-31.9,55.2-36.2s45.6,0.5,64.6,13.4
                    C259.3,175.7,273.4,202.4,273.4,231z M109.5,230.9c0,25.8,12.7,49.8,34,64.3c17.2,11.7,37.8,16,58.2,12.1s38-15.5,49.7-32.6
                    c8.8-12.9,13.5-28,13.5-43.6c0-25.8-12.7-49.8-34-64.3c-17.2-11.7-37.8-16-58.2-12.1s-38,15.5-49.7,32.6
                    C114.1,200.2,109.5,215.3,109.5,230.9z"/>
            </g>
            <g>
                <path class="st2" d="M145.5,293.1c12.9,8.8,27.2,12.2,42.2,12.1v-72.5h-74.8C112.9,256,124.5,278.9,145.5,293.1z"/>
            </g>
            <g>
                <path class="st0" d="M246.6,270.7c-22.2,32.6-66.6,41-99.2,18.9c-32.6-22.2-41.1-66.6-18.9-99.2s66.6-41.1,99.2-18.9
                    C260.4,193.6,268.8,238,246.6,270.7z"/>
            </g>
        </g>
        <image style="overflow:visible;enable-background:new;" width="162" height="84" xlink:href="images/logo-aeon.jpg?a=1" transform="matrix(0.75 0 0 0.75 126.4081 199.4306)"></image>
        <image style="overflow:visible;enable-background:new;" class="tooltip1" title="Click for more details" width="250" height="250" xlink:href="images/client-standin.png" transform="matrix(0.69 0 0 0.69 100.3087 143.883)"></image>
    </g>
    <g id="MnS" class="interact">
        <g id="circle-2">
            <g>
                <path class="st0 interact" d="M331.7,298.7c-37.4-25.5-47.1-76.5-21.7-113.9c25.5-37.4,76.4-47.1,113.9-21.7
                    c37.4,25.5,47.1,76.5,21.7,113.9C420.1,314.5,369.1,324.2,331.7,298.7z"/>
                <path class="st1" d="M377.7,317.2c-17.3,0-34.1-5.2-48.4-14.9c-19-13-31.9-32.6-36.2-55.2c-4.3-22.6,0.5-45.6,13.4-64.6
                    c16.1-23.6,42.7-37.7,71.4-37.7c17.3,0,34.1,5.2,48.4,14.9c19,13,31.9,32.6,36.2,55.2c4.3,22.6-0.5,45.6-13.4,64.6
                    C433,303.1,406.3,317.2,377.7,317.2z M377.9,153.2c-25.8,0-49.8,12.7-64.3,34c-11.7,17.2-16,37.8-12.1,58.2s15.5,38,32.6,49.7
                    c12.9,8.8,28,13.5,43.6,13.5c25.8,0,49.8-12.7,64.3-34c11.7-17.2,16-37.8,12.1-58.2s-15.5-38-32.6-49.7
                    C408.5,157.9,393.5,153.2,377.9,153.2z"/>
            </g>
            <g>
                <path class="st2" d="M315.6,189.1c-8.8,12.9-12.3,27.1-12.2,42.1H376v-74.6C352.8,156.7,329.9,168.1,315.6,189.1z"/>
            </g>
            <g>
                <path class="st0" d="M338.1,290.4c-32.6-22.2-41-66.6-18.9-99.2c22.2-32.6,66.6-41.1,99.2-18.9s41.1,66.6,18.9,99.2
                    C415.1,304.2,370.7,312.6,338.1,290.4z"/>
            </g>
        </g>
        <image style="overflow:visible;enable-background:new;" width="164" height="97" xlink:href="images/logo-marks-and-spencers.jpg" transform="matrix(0.75 0 0 0.75 316.2838 200.1799)"></image>
        <image style="overflow:visible;enable-background:new;" class="tooltip1" title="Click for more details" width="250" height="250" xlink:href="images/client-standin.png" transform="matrix(0.69 0 0 0.69 290.9343 143.883)"></image>
    </g>
    <g id="MetroSG" class="interact">
        <g id="circle-3">
            <g>
                <path class="st0 interact" d="M614.4,163.2c37.4,25.5,47.1,76.5,21.7,113.9c-25.5,37.4-76.4,47.1-113.9,21.7
                    c-37.4-25.5-47.1-76.5-21.7-113.9C526,147.4,577,137.7,614.4,163.2z"/>
                <path class="st1" d="M568.4,144.7c17.3,0,34.1,5.2,48.4,14.9c19,13,31.9,32.6,36.2,55.2s-0.5,45.6-13.4,64.6
                    c-16.1,23.6-42.7,37.7-71.4,37.7c-17.3,0-34.1-5.2-48.4-14.9c-19-13-31.9-32.6-36.2-55.2c-4.3-22.6,0.5-45.6,13.4-64.6
                    C513.1,158.8,539.7,144.7,568.4,144.7z M568.2,308.6c25.8,0,49.8-12.7,64.3-34c11.7-17.2,16-37.8,12.1-58.2s-15.5-38-32.6-49.7
                    c-12.9-8.8-28-13.5-43.6-13.5c-25.8,0-49.8,12.7-64.3,34c-11.7,17.2-16,37.8-12.1,58.2s15.5,38,32.6,49.7
                    C537.5,304,552.6,308.6,568.2,308.6z"/>
            </g>
            <g>
                <path class="st2" d="M630.3,272.7c8.8-12.9,12.4-27.2,12.3-42.2h-72.8v74.7C593.1,305.1,616.1,293.7,630.3,272.7z"/>
            </g>
            <g>
                <path class="st0" d="M608,171.4c32.6,22.2,41.1,66.6,18.9,99.2c-22.2,32.6-66.6,41.1-99.2,18.9s-41.1-66.6-18.9-99.2
                    C531,157.7,575.4,149.2,608,171.4z"/>
            </g>
        </g>
        <image style="overflow:visible;enable-background:new;" width="180" height="50" xlink:href="images/logo-metrosg.png" transform="matrix(0.75 0 0 0.75 501.1598 209.9299)"></image>
        <image style="overflow:visible;enable-background:new;" class="tooltip1" title="Click for more details" width="250" height="250" xlink:href="images/client-standin.png" transform="matrix(0.69 0 0 0.69 481.6832 143.883)"></image>
    </g>
    <g id="Alpro" class="interact">
        <g id="circle-4">
            <g>
                <path class="st0 interact" d="M805,163.2c37.4,25.5,47.1,76.5,21.7,113.9c-25.5,37.4-76.4,47.1-113.9,21.7
                    c-37.4-25.5-47.1-76.5-21.7-113.9C716.6,147.4,767.6,137.7,805,163.2z"/>
                <path class="st1" d="M759,144.7c17.3,0,34.1,5.2,48.4,14.9c19,13,31.9,32.6,36.2,55.2s-0.5,45.6-13.4,64.6
                    c-16.1,23.6-42.7,37.7-71.4,37.7c-17.3,0-34.1-5.2-48.4-14.9c-19-13-31.9-32.6-36.2-55.2s0.5-45.6,13.4-64.6
                    C703.7,158.8,730.4,144.7,759,144.7z M758.8,308.6c25.8,0,49.8-12.7,64.3-34c11.7-17.2,16-37.8,12.1-58.2s-15.5-38-32.6-49.7
                    c-12.9-8.8-28-13.5-43.6-13.5c-25.8,0-49.8,12.7-64.3,34c-11.7,17.2-16,37.8-12.1,58.2s15.5,38,32.6,49.7
                    C728.2,304,743.2,308.6,758.8,308.6z"/>
            </g>
            <g>
                <path class="st2" d="M800,168.4c-12.9-8.8-27.2-12.4-42.2-12.3v72.8h74.7C832.4,205.7,821,182.7,800,168.4z"/>
            </g>
            <g>
                <path class="st0" d="M798.6,171.4c35.1,23.9,38.6,70.2,18.9,99.2c-22.2,32.6-66.6,41.1-99.2,18.9
                    c-32.6-22.2-41.1-66.6-18.9-99.2C721.6,157.7,766,149.2,798.6,171.4z"/>
            </g>
        </g>
        <image style="overflow:visible;enable-background:new;" width="380" height="160" xlink:href="images/logo-alpro.png" transform="matrix(0.439 0 0 0.439 675.0547 190.1245)"></image>
        <image style="overflow:visible;enable-background:new;" class="tooltip1" title="Click for more details" width="250" height="250" xlink:href="images/client-standin.png" transform="matrix(0.69 0 0 0.69 672.3087 143.883)"></image>
    </g>
</g>
</svg>