<?xml version="1.0" encoding="utf-8"?>
<!-- Generator: Adobe Illustrator 16.0.0, SVG Export Plug-In . SVG Version: 6.00 Build 0)  -->
<!DOCTYPE svg PUBLIC "-//W3C//DTD SVG 1.1//EN" "http://www.w3.org/Graphics/SVG/1.1/DTD/svg11.dtd">
<svg version="1.1" xmlns="http://www.w3.org/2000/svg" xmlns:xlink="http://www.w3.org/1999/xlink" x="0px" y="0px" width="800px"
	 height="800px" viewBox="0 0 800 800" style="" xml:space="preserve">
<style type="text/css">
<![CDATA[
	.st0{fill:#46474C;}
	.st1{fill:#7B58A4;}
	.st2{opacity:0;fill:#FFFFFF;}
	.st3{font-family:'OpenSans-Bold';}
	.st4{fill:#E6DFED;}
	.st5{fill:#EAEAE9;stroke:#EAEAE9;stroke-miterlimit:10;}
	.st6{fill:#EAEAE9;}
	.st7{fill:#EB5F8E;}
	.st8{fill:#EBD2E1;}
	.st9{fill:#505159;}
	.st10{fill:#296EAC;}
	.st11{fill:#5F616A;}
	.st12{fill:#C3DAEB;}
	.st13{fill:#FCBC70;}
	.st14{fill:#FCBD72;}
	.st15{fill:#2EB9A6;}
	.st16{fill:#2F3031;}
	.st17{fill:#FFEBD5;}
	.st18{fill:#FFFFFF;}
	.st19{fill:none;}
	.st20{font-family:'OpenSans-Regular';}
	.st21{fill:none;stroke:#EAEAE9;stroke-width:15;stroke-miterlimit:10;}
	.st22{font-size:14px;}
	.st23{font-size:15px;}
	.st24{font-size:16px;}
	.st25{font-size:18px;}
	.st26{fill:#D5EDEB;}
	.st27{fill:none;stroke:#EAEAE9;stroke-width:3;stroke-miterlimit:10;stroke-dasharray:12.0628,12.0628;}
]]>
</style>
<g id="Static">
	<circle class="st21" cx="402.1" cy="405.9" r="220"/>
	<circle class="st6" cx="401.1" cy="405.9" r="178.5"/>
</g>
<g id="base-ring-inner">
	<g>
		<path class="st27" d="M605.6,406.4c0,112.4-91.1,203.5-203.5,203.5c-112.4,0-203.5-91.1-203.5-203.5
			c0-112.4,91.1-203.5,203.5-203.5C514.5,202.9,605.6,294,605.6,406.4z"/>
	</g>
</g>
<g id="base-ring-outer">
	<g>
		<path class="st6" d="M169.4,401.9c2.1-124,98.7-224.5,219.7-227v-5.1c-55.2,1.2-115.4,25.4-157.6,69c-42.4,43.7-66,97-67,163
			H169.4z"/>
		<path class="st6" d="M169.4,411.9h-4.9c1.2,66,24.9,118.5,67,162c42.3,43.6,102.4,67.9,157.6,69v-5.1
			C269.2,635.5,172,534.9,169.4,411.9z"/>
	</g>
	<g>
		<path class="st5" d="M634.2,402.4c-2.1-124-99.6-225-220.6-227.5v-5.1c56,1.2,115.8,25.7,158.1,69.3
			c42.4,43.7,66.4,97.3,67.4,163.3H634.2z"/>
		<path class="st5" d="M634.2,412.4h4.9c-1.2,66-25.3,118.3-67.4,161.8c-42.3,43.6-102.1,67.6-158.1,68.8v-5.1
			C533.6,635.5,631.5,535.4,634.2,412.4z"/>
	</g>
</g>
<g id="orange">
	<g id="circle-orange">
		<circle class="st18 interact" cx="401" cy="169.5" r="91"/>
		<g>
			<path class="st14" d="M400.9,252.4c-16.6,0-32.6-5-46.4-14.3c-18.2-12.4-30.6-31.2-34.7-52.9c-4.1-21.7,0.4-43.7,12.9-61.9
				c15.4-22.6,41-36.2,68.4-36.2c16.6,0,32.6,5,46.4,14.3c18.2,12.4,30.6,31.2,34.7,52.9c4.1,21.7-0.4,43.7-12.9,61.9
				C453.9,238.9,428.3,252.4,400.9,252.4z M401.1,99.5c-23.3,0-45,11.5-58.1,30.7c-10.6,15.5-14.4,34.2-10.9,52.6
				c3.5,18.4,14,34.4,29.5,44.9c11.7,8,25.3,12.2,39.4,12.2c23.3,0,45-11.5,58.1-30.7c10.6-15.5,14.4-34.2,10.9-52.6
				c-3.5-18.4-14-34.4-29.5-44.9C428.8,103.7,415.2,99.5,401.1,99.5z"/>
		</g>
		<path class="st17" d="M347.8,133.9c-7.6,11.2-11.5,24-11.4,37h64.7v-65.6C381.1,105.4,360.2,115.7,347.8,133.9z"/>
		<circle class="st18" cx="400.5" cy="169.8" r="54.6"/>
	</g>
	<g id="Layer_6">
		<text transform="matrix(1 0 0 1 367.8535 154.5044)"><tspan x="0" y="0" class="st13 st3 st24">Mobile &amp;</tspan><tspan x="-1.5" y="19.2" class="st13 st3 st24">Frontend</tspan><tspan x="3.2" y="38.4" class="st13 st3 st24">Support</tspan></text>
	</g>
</g>
<g id="pink">
	<g id="circle-pink">
		<circle class="st18 interact" cx="638.9" cy="408.2" r="91"/>
		<g>
			<path class="st7" d="M721.5,408.3c0,16.6-5,32.6-14.3,46.4c-12.4,18.2-31.2,30.6-52.9,34.7c-21.7,4.1-43.7-0.4-61.9-12.9
				c-22.6-15.4-36.2-41-36.2-68.4c0-16.6,5-32.6,14.3-46.4c12.4-18.2,31.2-30.6,52.9-34.7c21.7-4.1,43.7,0.4,61.9,12.9
				C708,355.3,721.5,380.9,721.5,408.3z M568.6,408.2c0,23.3,11.5,45,30.7,58.1c15.5,10.6,34.2,14.4,52.6,10.9
				c18.4-3.5,34.4-14,44.9-29.5c8-11.7,12.2-25.3,12.2-39.4c0-23.3-11.5-45-30.7-58.1c-15.5-10.6-34.2-14.4-52.6-10.9
				c-18.4,3.5-34.4,14-44.9,29.5C572.8,380.4,568.6,394.1,568.6,408.2z"/>
		</g>
		<path class="st8" d="M603.5,461.7c11.2,7.6,23.6,11,36.6,10.9v-63.7h-64.9C575.3,428.9,585.3,449.3,603.5,461.7z"/>
		<circle class="st18" cx="639.6" cy="408.5" r="54.6"/>
	</g>
	<g id="Layer_6_1_">
		<text transform="matrix(1 0 0 1 607.5669 402.3857)"><tspan x="0" y="0" class="st7 st3 st24">Supplier</tspan><tspan x="-20.3" y="19.2" class="st7 st3 st24">Collaboration</tspan></text>
	</g>
</g>
<g id="blue">
	<g id="circle-blue">
		<circle class="st18 interact" cx="401.8" cy="407.4" r="91"/>
		<g>
			<path class="st10" d="M401.8,324.7c16.6,0,32.6,5,46.4,14.3c18.2,12.4,30.6,31.2,34.7,52.9c4.1,21.7-0.4,43.7-12.9,61.9
				c-15.4,22.6-41,36.2-68.4,36.2c-16.6,0-32.6-5-46.4-14.3c-18.2-12.4-30.6-31.2-34.7-52.9c-4.1-21.7,0.4-43.7,12.9-61.9
				C348.8,338.2,374.4,324.7,401.8,324.7z M401.7,477.5c23.3,0,45-11.5,58.1-30.7c10.6-15.5,14.4-34.2,10.9-52.6
				c-3.5-18.4-14-34.4-29.5-44.9c-11.7-8-25.3-12.2-39.4-12.2c-23.3,0-45,11.5-58.1,30.7c-10.6,15.5-14.4,34.2-10.9,52.6
				c3.5,18.4,14,34.4,29.5,44.9C374,473.3,387.6,477.5,401.7,477.5z"/>
		</g>
		<path class="st12" d="M455,442.6c7.6-11.2,11.1-23.7,11-36.7h-64v65C422.1,470.9,442.6,460.8,455,442.6z"/>
		<circle class="st18" cx="402" cy="406.5" r="54.6"/>
	</g>
	<g id="Layer_6_2_">
		<text transform="matrix(1 0 0 1 347.9668 393.7041)"><tspan x="0" y="0" class="st10 st3 st23">Merchandising</tspan><tspan x="5.1" y="18" class="st10 st3 st23">Management</tspan><tspan x="5.5" y="36" class="st10 st3 st23">&amp; Accounting</tspan></text>
	</g>
</g>
<g id="green">
	<g id="circle-green">
		<circle class="st18 interact" cx="401" cy="648.5" r="91"/>
		<g>
			<path class="st15" d="M483.9,648.5c0,16.6-5,32.6-14.3,46.4c-12.4,18.2-31.2,30.6-52.9,34.7c-21.7,4.1-43.7-0.4-61.9-12.9
				c-22.6-15.4-36.2-41-36.2-68.4c0-16.6,5-32.6,14.3-46.4c12.4-18.2,31.2-30.6,52.9-34.7c21.7-4.1,43.7,0.4,61.9,12.9
				C470.4,595.6,483.9,621.1,483.9,648.5z M331,648.4c0,23.3,11.5,45,30.7,58.1c15.5,10.6,34.2,14.4,52.6,10.9
				c18.4-3.5,34.4-14,44.9-29.5c8-11.7,12.2-25.3,12.2-39.4c0-23.3-11.5-45-30.7-58.1c-15.5-10.6-34.2-14.4-52.6-10.9
				c-18.4,3.5-34.4,14-44.9,29.5C335.2,620.7,331,634.3,331,648.4z"/>
		</g>
		<path class="st26" d="M365.3,701.9c11.2,7.6,23.8,11.2,36.8,11.1v-64.2h-65.3C336.9,668.9,347.1,689.5,365.3,701.9z"/>
		<circle class="st18" cx="401.2" cy="649" r="54.6"/>
	</g>
	<g id="Layer_6_3_">
		<text transform="matrix(1 0 0 1 365.4761 652.4844)" class="st15 st3 st24">Analytics</text>
	</g>
</g>
<g id="purple">
	<g id="circle-purple">
		<circle class="st18 interact" cx="160.1" cy="406.8" r="91"/>
		<g>
			<path class="st1" d="M77.5,406.8c0-16.6,5-32.6,14.3-46.4c12.4-18.2,31.2-30.6,52.9-34.7c21.7-4.1,43.7,0.4,61.9,12.9
				c22.6,15.4,36.2,41,36.2,68.4c0,16.6-5,32.6-14.3,46.4c-12.4,18.2-31.2,30.6-52.9,34.7c-21.7,4.1-43.7-0.4-61.9-12.9
				C91,459.7,77.5,434.2,77.5,406.8z M230.4,406.9c0-23.3-11.5-45-30.7-58.1c-15.5-10.6-34.2-14.4-52.6-10.9
				c-18.4,3.5-34.4,14-44.9,29.5c-8,11.7-12.2,25.3-12.2,39.4c0,23.3,11.5,45,30.7,58.1c15.5,10.6,34.2,14.4,52.6,10.9
				c18.4-3.5,34.4-14,44.9-29.5C226.2,434.6,230.4,421,230.4,406.9z"/>
		</g>
		<path class="st4" d="M195.6,353.4c-11.2-7.6-23.5-10.8-36.5-10.7v63.2h64.7C223.7,385.9,213.9,365.8,195.6,353.4z"/>
		<circle class="st18" cx="159.4" cy="406.8" r="54.6"/>
	</g>
	<g id="Layer_6_copy_3">
		<text transform="matrix(1 0 0 1 122.627 402.3262)"><tspan x="0" y="0" class="st1 st3 st24">Customer</tspan><tspan x="-13.7" y="19.2" class="st1 st3 st24">Management</tspan></text>
	</g>
	<circle id="purple-user" class="st2" cx="160.1" cy="406.8" r="91"/>
</g>
<g id="reveal-pink">
	<circle class="st7" cx="638" cy="398.5" r="141"/>
	<g>
		<text transform="matrix(1 0 0 1 601.5591 318.9771)"><tspan x="0" y="0" class="st9 st3 st25">Supplier</tspan><tspan x="-23.6" y="21.6" class="st9 st3 st25">Collaboration</tspan></text>
		<rect x="508" y="360.4" class="st19" width="260" height="166"/>
		<text transform="matrix(1 0 0 1 514.5435 371.0884)"><tspan x="0" y="0" class="st18 st20 st22">With features like eProcurement and </tspan><tspan x="-4.5" y="16.8" class="st18 st20 st22">Supplier Portal, PROFIT™ makes it easier</tspan><tspan x="2.9" y="33.6" class="st18 st20 st22">for seamless supplier collaboration. </tspan><tspan x="15.1" y="50.4" class="st18 st20 st22">Retailer can manage its supplier</tspan><tspan x="11" y="67.2" class="st18 st20 st22">network using an automated and</tspan><tspan x="17.9" y="84" class="st18 st20 st22">global view of the supply chain,</tspan><tspan x="9.1" y="100.8" class="st18 st20 st22">which also provides opportunities</tspan><tspan x="25.2" y="117.6" class="st18 st20 st22">for retailers to build stronger</tspan><tspan x="48.1" y="134.4" class="st18 st20 st22">supplier relationships.</tspan></text>
	</g>
</g>
<g id="reveal-blue">
	<circle class="st10" cx="401" cy="398.5" r="141"/>
	<g>
		<text transform="matrix(1 0 0 1 335.7241 317.9771)"><tspan x="0" y="0" class="st0 st3 st25">Merchandising</tspan><tspan x="6.5" y="21.6" class="st0 st3 st25">Management</tspan><tspan x="6.7" y="43.2" class="st0 st3 st25">&amp; Accounting</tspan></text>
		<rect x="271" y="381.4" class="st19" width="260" height="166"/>
		<text transform="matrix(1 0 0 1 280.6699 392.0884)"><tspan x="0" y="0" class="st18 st20 st22">PROFIT™ provides a complete set of </tspan><tspan x="20.4" y="16.8" class="st18 st20 st22">tools to manage every step of </tspan><tspan x="8.8" y="33.6" class="st18 st20 st22">merchandising, from purchasing, </tspan><tspan x="24.3" y="50.4" class="st18 st20 st22">inventory management with</tspan><tspan x="10.8" y="67.2" class="st18 st20 st22">just-in-time auto replenishment,</tspan><tspan x="30.4" y="84" class="st18 st20 st22">pricing, to distribution and</tspan><tspan x="63.5" y="100.8" class="st18 st20 st22">sales processing. </tspan></text>
	</g>
</g>
<g id="reveal-green">
	<circle class="st15" cx="401" cy="639.5" r="141"/>
	<g>
		<text transform="matrix(1 0 0 1 360.6284 599.9766)" class="st0 st3 st25">Analytics</text>
		<rect x="271" y="622.4" class="st19" width="260" height="166"/>
		<text transform="matrix(1 0 0 1 282.3276 633.0879)"><tspan x="0" y="0" class="st18 st20 st22">With PROFIT™, retailers can benefit</tspan><tspan x="7.3" y="16.8" class="st18 st20 st22">from comprehensive, automated </tspan><tspan x="-8.4" y="33.6" class="st18 st20 st22">monitoring and reporting of the entire </tspan><tspan x="5.9" y="50.4" class="st18 st20 st22">retail process, offering invaluable</tspan><tspan x="12.9" y="67.2" class="st18 st20 st22">data via digital dashboards and</tspan><tspan x="39.6" y="84" class="st18 st20 st22">business intelligence to</tspan><tspan x="46.9" y="100.8" class="st18 st20 st22">help them get ahead.</tspan></text>
	</g>
</g>
<g id="reveal-orange">
	<circle class="st13" cx="401" cy="160.5" r="141"/>
	<g>
		<text transform="matrix(1 0 0 1 362.0674 90.9771)"><tspan x="0" y="0" class="st11 st3 st25">Mobile &amp;</tspan><tspan x="-39.1" y="21.6" class="st11 st3 st25">Frontend Support</tspan></text>
		<rect x="271" y="133.4" class="st19" width="260" height="166"/>
		<text transform="matrix(1 0 0 1 286.4805 144.0884)"><tspan x="0" y="0" class="st18 st20 st22">The system offers mobile-enabled </tspan><tspan x="21.2" y="16.8" class="st18 st20 st22">support for eBusiness. With </tspan><tspan x="-12.6" y="33.6" class="st18 st20 st22">comprehensive customer management </tspan><tspan x="-10.5" y="50.4" class="st18 st20 st22">capabilities, PROFIT™ can help retailers </tspan><tspan x="-0.2" y="67.2" class="st18 st20 st22">strengthen customer relationships </tspan><tspan x="27.7" y="84" class="st18 st20 st22">through customer portals</tspan><tspan x="43.4" y="100.8" class="st18 st20 st22">and customer loyalty</tspan><tspan x="64.2" y="117.6" class="st18 st20 st22">functionalities. </tspan></text>
	</g>
</g>
<g id="reveal-purple">
	<circle class="st1" cx="160" cy="398.5" r="141"/>
	<g>
		<text transform="matrix(1 0 0 1 116.8755 327.9771)"><tspan x="0" y="0" class="st16 st3 st25">Customer</tspan><tspan x="-15.6" y="21.6" class="st16 st3 st25">Management</tspan></text>
		<rect x="30" y="371.4" class="st19" width="260" height="166"/>
		<text transform="matrix(1 0 0 1 35.2578 382.0884)"><tspan x="0" y="0" class="st18 st20 st22">PROFIT™ enables retailers to interact</tspan><tspan x="6.8" y="16.8" class="st18 st20 st22">easily with customers with a highly </tspan><tspan x="20.2" y="33.6" class="st18 st20 st22">personalised portal and loyalty </tspan><tspan x="22.8" y="50.4" class="st18 st20 st22">capabilities. With always-open </tspan><tspan x="14.1" y="67.2" class="st18 st20 st22">communications and selfservice</tspan><tspan x="28.4" y="84" class="st18 st20 st22">options, retailers can ensure</tspan><tspan x="37.1" y="100.8" class="st18 st20 st22">customer satisfaction and</tspan><tspan x="56" y="117.6" class="st18 st20 st22">longterm retention.</tspan></text>
	</g>
</g>
</svg>
